<svg xmlns="http://www.w3.org/2000/svg" xmlns:xlink="http://www.w3.org/1999/xlink" viewBox="0 0 233.14 269.21"><defs><style>.cls-1{fill:#fff;}.cls-2{fill:url(#Безымянный_градиент_2);}</style><linearGradient id="Безымянный_градиент_2" x1="34.57" y1="141.02" x2="202.6" y2="141.02" gradientUnits="userSpaceOnUse"><stop offset="0" stop-color="#12cfb0"/><stop offset="1" stop-color="#2c63df"/></linearGradient></defs><title>Ресурс 4</title><g id="Слой_2" data-name="Слой 2"><g id="Слой_1-2" data-name="Слой 1"><polygon class="cls-1" points="233.14 67.3 116.57 0 0 67.3 0 201.91 116.57 269.21 233.14 201.91 233.14 67.3"/><path class="cls-2" d="M116.69,191.41c-2.57.65-4.28.14-5.4-2.18a44.19,44.19,0,0,0-3-4.55c-1.53-2.37-3.71-4.49-2.75-7.85H98v3.11c-3.23-3.19-7.39-5.47-8.93-9.92-1.27-3.66-3.37-5.08-7.35-4.64a91.82,91.82,0,0,1-12.28,0,4.06,4.06,0,0,1-2.41-1c-1.95-1.77-3.71-3.74-5.65-5.52a3.85,3.85,0,0,0-2.28-.94c-3.21-.1-6.42,0-9.53,0-.16-.25-.29-.36-.28-.44.44-2.69-.89-4.52-2.86-6.09a19.25,19.25,0,0,1-6.78-10.89c-1.57-6.34-3.43-12.62-5.09-18.94a2.62,2.62,0,0,1,.53-1.81A8.14,8.14,0,0,1,36.85,118a3.49,3.49,0,0,0,1.23-2.9,13.4,13.4,0,0,1,.8-4.42,38,38,0,0,0,2.93-18.13c-.05-.58,0-1.16,0-1.72,3-.86,3.6-.6,4.87,1.93a29.56,29.56,0,0,0,2.51,4.36V90.56c3,.47,5.67.87,8.36,1.32,12,2,24,4.06,36,5.94a54.88,54.88,0,0,0,8.22.23c6.32,0,12.64.12,19,0,5-.13,9.62,1.78,14.4,2.75,1.31.27,2.59.65,4,1v3.71h7.55v11.15h3.7v-11H154c0,.06.18.17.16.25-.52,2.7.76,4.6,2.79,6.09,3.8,2.77,5.64,6.34,4.72,11.1a5.52,5.52,0,0,0,.08,1.12c2.43-1.22,4.73-2.31,6.94-3.56.37-.21.56-1.14.49-1.68a2.63,2.63,0,0,1,2.09-3.25,11.94,11.94,0,0,0,8.15-8.14,4.91,4.91,0,0,1,2.91-3c1.86-.83,4.36-1.42,5.24-2.92s.31-4.08.35-6.17c0-1.57,0-3.14,0-4.92,2.4,0,4.67,0,6.93,0,.4,0,.89.51,1.16.9,2.11,3.09,4.15,6.23,6.28,9.31a1.64,1.64,0,0,1-.14,2.18c-2.19,3.23-4.33,6.48-6.65,10h3.61c-.53.78-.84,1.28-1.19,1.75-3,4-6.07,8-9,12.11a10.25,10.25,0,0,0-1,2.84.42.42,0,0,0,0,.17c.83,6.58-1.19,12.37-4.2,18.19a43.19,43.19,0,0,1-9.61,12.53,4.05,4.05,0,0,0-1.26,2.89A13,13,0,0,0,176.13,174a16.69,16.69,0,0,1,4.32,14.17,24.88,24.88,0,0,0,0,3.31c-.67,0-1.23.1-1.78.12s-1.16,0-1.68,0c-.14-.18-.28-.29-.26-.37.55-2.79-.94-4.6-2.92-6.23-.9-.74-1.6-1.72-2.5-2.46a5,5,0,0,1-2.14-4.82c.17-1.39-3.1-4.79-4.49-4.8-5.9,0-11.8,0-17.85,0l-.18,3.68c-.7,0-1.32.08-1.94.08-5.15,0-10.3,0-15.45,0a4.51,4.51,0,0,0-2.27.64c-3.11,2-6.18,4-9.19,6.14a2.89,2.89,0,0,0-1,1.94C116.61,187.42,116.69,189.41,116.69,191.41Z"/></g></g></svg>