<svg xmlns="http://www.w3.org/2000/svg" xmlns:xlink="http://www.w3.org/1999/xlink" viewBox="0 0 233.14 269.21"><defs><style>.cls-1{fill:#fff;}.cls-2{fill:url(#Новый_образец_градиентной_залив);}.cls-3{fill:url(#Новый_образец_градиентной_залив-2);}.cls-4{fill:url(#Новый_образец_градиентной_залив-3);}.cls-5{fill:url(#Новый_образец_градиентной_залив-4);}</style><linearGradient id="Новый_образец_градиентной_залив" x1="81.6" y1="65.82" x2="186.6" y2="124.32" gradientUnits="userSpaceOnUse"><stop offset="0" stop-color="#12cfb0"/><stop offset="1" stop-color="#2c63df"/></linearGradient><linearGradient id="Новый_образец_градиентной_залив-2" x1="46.94" y1="128.04" x2="151.94" y2="186.53" xlink:href="#Новый_образец_градиентной_залив"/><linearGradient id="Новый_образец_градиентной_залив-3" x1="73.07" y1="81.13" x2="178.07" y2="139.63" xlink:href="#Новый_образец_градиентной_залив"/><linearGradient id="Новый_образец_градиентной_залив-4" x1="38.46" y1="143.26" x2="143.45" y2="201.76" xlink:href="#Новый_образец_градиентной_залив"/></defs><title>Ресурс 3</title><g id="Слой_2" data-name="Слой 2"><g id="Слой_1-2" data-name="Слой 1"><polygon class="cls-1" points="233.14 67.3 116.57 0 0 67.3 0 201.91 116.57 269.21 233.14 201.91 233.14 67.3"/><path class="cls-2" d="M138.49,103.66c-13.85-8-27.86-8-41.79,0l-22-22.1c23.27-19.44,61.13-20.39,85.95,0Z"/><path class="cls-3" d="M62.49,179.63c-20.12-25-19.54-62-.06-85.9L84.58,116a39.06,39.06,0,0,0,.09,41.44Z"/><path class="cls-4" d="M150.64,157.39c7.95-13.78,7.95-27.74,0-41.6l22.07-22.08c18.74,22.2,21,60,.08,85.87Z"/><path class="cls-5" d="M74.39,191.55l17.82-17.81c1.18-1.18,2.4-2.33,3.53-3.56.6-.66,1.07-.63,1.81-.21q20.06,11.31,40.15,0a1.66,1.66,0,0,1,1.52,0q10.8,10.68,21.5,21.46C138.37,210.46,100.45,212.7,74.39,191.55Z"/></g></g></svg>