<svg xmlns="http://www.w3.org/2000/svg" xmlns:xlink="http://www.w3.org/1999/xlink" viewBox="0 0 233.14 269.21"><defs><style>.cls-1{fill:#fff;}.cls-2{fill:url(#Безымянный_градиент_2);}.cls-3{fill:url(#Безымянный_градиент_2-2);}</style><linearGradient id="Безымянный_градиент_2" x1="79.48" y1="157.35" x2="153.48" y2="163.35" gradientUnits="userSpaceOnUse"><stop offset="0" stop-color="#12cfb0"/><stop offset="1" stop-color="#2c63df"/></linearGradient><linearGradient id="Безымянный_градиент_2-2" x1="86.1" y1="75.67" x2="160.15" y2="81.67" xlink:href="#Безымянный_градиент_2"/></defs><title>Ресурс 2</title><g id="Слой_2" data-name="Слой 2"><g id="Слой_1-2" data-name="Слой 1"><polygon class="cls-1" points="233.14 67.3 116.57 0 0 67.3 0 201.91 116.57 269.21 233.14 201.91 233.14 67.3"/><path class="cls-2" d="M117.68,111.43c3.08,1,6,2.05,8.87,2.92,1.57.47,2.66-.18,2.87-1.4s-.53-1.95-2.12-2.25a19.6,19.6,0,0,1-11.23-6.24c2.16.19,4.33.29,6.48.57,3.53.46,7,1,10.55,1.61a2.13,2.13,0,0,1,1.31.92c4.47,7.68,10.16,14.4,16.16,20.9,6.56,7.1,11.95,15,15,24.2,5.42,16.27,2.24,31-8.86,43.87-15.61,18.16-43.3,24.35-65.26,14.79-10.2-4.44-17.72-11.66-22-21.94-6.13-14.63-6.1-29.48-.76-44.32a40.75,40.75,0,0,1,9-14.17c4.64-4.89,9.64-9.43,14.46-14.15,2.2-2.16,4.37-4.35,6.47-6.6a7.23,7.23,0,0,0,1.93-2.89c.49-2.07,1.85-2.44,3.59-2.51s3.72-.29,5.57-.26c1.67,0,2.27,1.37,2.6,2.72a26.34,26.34,0,0,0,5.21,10.64c1,1.27,2.23,1.56,3.11.71,1.1-1.07.6-2-.2-3.08C119.47,114.19,118.61,112.79,117.68,111.43Zm-2.25,22.35c0,1.55-.09,2.94,0,4.31s-.31,1.77-1.66,2.05c-4.54.94-7.66,3.57-8.67,8.26-1.07,5,.58,9.31,4.72,11.93a56.15,56.15,0,0,0,6.3,3,42.16,42.16,0,0,1,4.88,2.3,5.65,5.65,0,0,1,1.4,8.23c-2,2.32-4.79,2.38-7.52,1.82a5.41,5.41,0,0,1-4.58-4.7c-.11-.71-.22-1.43-.33-2.21h-6.37c-.63,6.63,2.26,9.88,11.33,12.85v5.13h4.44v-5.29l1.42-.25c5-.89,8.59-3.92,9.26-8.4.84-5.63-.55-9.41-5.16-12.18a57.61,57.61,0,0,0-5.75-2.69c-1.59-.73-3.25-1.32-4.76-2.2a5.51,5.51,0,0,1-2.58-6.59c.63-2.42,2.39-3.7,5.23-3.81s4.94,1.18,5.81,3.76a27.54,27.54,0,0,1,.68,3.05h6.34c.41-6.15-2.94-10.78-8.73-12-1.13-.24-1.33-.73-1.3-1.71.06-1.52,0-3,0-4.62Z"/><path class="cls-3" d="M132.47,102.42c-2.58-.43-5.4-.92-8.22-1.37a78.76,78.76,0,0,0-22.71-.39,1.78,1.78,0,0,1-1.36-.4A49.31,49.31,0,0,0,77.8,86.47c-.36-.11-.72-.2-1.07-.33-2.11-.75-2.71-2.82-1.08-4.36a12.28,12.28,0,0,1,3.52-2.07,8.55,8.55,0,0,0,4.24-3.46c1.46-2.5.62-4.19-2.25-4.53-1.38-.16-2.64-.45-3-2.1s.19-3.61,1.73-4.25a8.41,8.41,0,0,1,4.41-.74,20.38,20.38,0,0,1,12,6.38c1.78,2,3.08,1.8,4.14-.69a52.56,52.56,0,0,0,2-5.87c1.93-6.54,4.43-8.49,11.22-7.94a28.83,28.83,0,0,1,8,2,7.35,7.35,0,0,1,4.71,6.67A9.79,9.79,0,0,0,127,68a1.81,1.81,0,0,0,3.29.37c1.68-2.53,3.23-5.16,3.45-8.29.13-1.81.77-3.21,2.63-3.74a4.37,4.37,0,0,1,4.74,1.45,8.17,8.17,0,0,1,1.86,5.46c0,.58,0,1.17,0,1.75,0,1.28.66,1.84,1.9,1.76l.64,0c3.61-.24,4.77.64,4.78,4.32a18.52,18.52,0,0,1-1.1,6c-1.48,4.22-4.24,7.69-7,11.11-2.42,3-4.8,6-7,9.08A38.12,38.12,0,0,0,132.47,102.42Z"/></g></g></svg>