<svg xmlns="http://www.w3.org/2000/svg" xmlns:xlink="http://www.w3.org/1999/xlink" viewBox="0 0 369.65 504.13"><defs><style>.cls-1{fill:url(#Безымянный_градиент_8);}.cls-2{fill:url(#Безымянный_градиент_8-2);}.cls-3{fill:url(#Безымянный_градиент_8-3);}.cls-4{fill:url(#Безымянный_градиент_8-4);}</style><linearGradient id="Безымянный_градиент_8" x1="181.69" y1="21.86" x2="317.31" y2="481.28" gradientTransform="translate(265.93 -93.74) rotate(30)" gradientUnits="userSpaceOnUse"><stop offset="0" stop-color="#12cfb0"/><stop offset="1" stop-color="#2c63df"/></linearGradient><linearGradient id="Безымянный_градиент_8-2" x1="215.31" y1="11.93" x2="350.94" y2="471.35" gradientTransform="translate(261.1 -111.77) rotate(30)" xlink:href="#Безымянный_градиент_8"/><linearGradient id="Безымянный_градиент_8-3" x1="108.56" y1="43.45" x2="244.18" y2="502.86" gradientTransform="matrix(1, 0, 0, 1, 0, 0)" xlink:href="#Безымянный_градиент_8"/><linearGradient id="Безымянный_градиент_8-4" x1="241.56" y1="4.18" x2="377.18" y2="463.6" gradientTransform="translate(257.34 -125.85) rotate(30)" xlink:href="#Безымянный_градиент_8"/></defs><title>Ресурс 1</title><g id="Слой_2" data-name="Слой 2"><g id="Слой_1-2" data-name="Слой 1"><rect class="cls-1" x="295.49" y="441.56" width="24.8" height="15.6" rx="4.49" ry="4.49" transform="translate(-183.43 214.15) rotate(-30)"/><rect class="cls-2" x="330.4" y="423.53" width="17.44" height="15.6" rx="4.49" ry="4.49" transform="translate(-170.23 227.35) rotate(-30)"/><path class="cls-3" d="M305.79,62.56,234.6,21.46a25.73,25.73,0,0,0-25.73,0L28.47,125.62A25.73,25.73,0,0,0,15.6,147.9V356.22A25.73,25.73,0,0,0,28.47,378.5L208.88,482.66a25.73,25.73,0,0,0,25.73,0l41.82-24.15a4.49,4.49,0,0,1,6.13,1.64l3.31,5.74a4.49,4.49,0,0,1-1.64,6.13L234.6,500.68a25.73,25.73,0,0,1-25.73,0l-196-113.17A25.73,25.73,0,0,1,0,365.23V138.9a25.73,25.73,0,0,1,12.86-22.28l196-113.17a25.73,25.73,0,0,1,25.73,0l79,45.59a4.49,4.49,0,0,1,1.65,6.12l-3.29,5.75A4.49,4.49,0,0,1,305.79,62.56Z"/><rect class="cls-4" x="359.01" y="409.45" width="8.97" height="15.6" rx="4.49" ry="4.49" transform="matrix(0.87, -0.5, 0.5, 0.87, -159.93, 237.66)"/></g></g></svg>