<?xml version="1.0" encoding="UTF-8"?>
<!DOCTYPE svg PUBLIC "-//W3C//DTD SVG 1.1//EN" "http://www.w3.org/Graphics/SVG/1.1/DTD/svg11.dtd">
<!-- Creator: CorelDRAW X8 -->
<svg xmlns="http://www.w3.org/2000/svg" xml:space="preserve" width="511px" height="591px" version="1.1" style="shape-rendering:geometricPrecision; text-rendering:geometricPrecision; image-rendering:optimizeQuality; fill-rule:evenodd; clip-rule:evenodd"
viewBox="0 0 511 590"
 xmlns:xlink="http://www.w3.org/1999/xlink">
 <defs>
  <style type="text/css">
   <![CDATA[
    .fil0 {fill:#FEFEFE;fill-rule:nonzero}
    .fil1 {fill:#1BABA5;fill-rule:nonzero}
    .fil4 {fill:url(#id0);fill-rule:nonzero}
    .fil2 {fill:url(#id1);fill-rule:nonzero}
    .fil3 {fill:url(#id2);fill-rule:nonzero}
   ]]>
  </style>
  <radialGradient id="id0" gradientUnits="userSpaceOnUse" gradientTransform="matrix(-0.868721 -6.47819 6.47818 -0.868723 -2396 2881)" cx="312.046" cy="459.823" r="55.9373" fx="312.046" fy="459.823">
   <stop offset="0" style="stop-opacity:1; stop-color:#00AAA4"/>
   <stop offset="0.509804" style="stop-opacity:1; stop-color:#46C1F0"/>
   <stop offset="1" style="stop-opacity:1; stop-color:#4362AA"/>
  </radialGradient>
  <radialGradient id="id1" gradientUnits="userSpaceOnUse" gradientTransform="matrix(-1.2248 -1.51298 1.51298 -1.2248 62 1450)" xlink:href="#id0" cx="322.153" cy="432.731" r="177.728" fx="322.153" fy="432.731">
  </radialGradient>
  <radialGradient id="id2" gradientUnits="userSpaceOnUse" gradientTransform="matrix(-0.868738 -6.47823 6.47821 -0.868714 -2401 2880)" xlink:href="#id0" cx="311.744" cy="460.601" r="55.9373" fx="311.744" fy="460.601">
  </radialGradient>
 </defs>
 <g id="Слой_x0020_1">
  <metadata id="CorelCorpID_0Corel-Layer"/>
  <g id="_2251043227952">
   <path class="fil0" d="M0 159l0 272c0,7 4,14 10,18l235 135c7,4 14,4 21,0l235 -135c6,-4 10,-11 10,-18l0 -272c0,-7 -4,-14 -10,-17l-235 -136c-7,-4 -14,-4 -21,0l-235 136c-6,3 -10,10 -10,17z"/>
  </g>
 </g>
 <g id="РЎР_x00bb_РѕР_x2116__x0020_1">
  <metadata id="CorelCorpID_1Corel-Layer"/>
  <g id="_2251043225072">
   <g>
    <path class="fil1" d="M337 407l7 -4c1,0 3,0 4,2l19 33c1,2 0,3 -1,4l-7 4c-1,1 -3,1 -4,-1l-19 -33c-1,-2 -1,-4 1,-5z"/>
   </g>
   <g>
    <path class="fil1" d="M309 423l12 -6c1,-1 3,-1 4,1l20 33c0,2 0,4 -2,4l-11 7c-2,1 -4,1 -5,-1l-19 -33c-1,-2 0,-4 1,-5z"/>
   </g>
   <g>
    <path class="fil1" d="M383 432l-2 2c-1,0 -3,0 -3,-1l-20 -35c-1,-1 -1,-3 1,-3l2 -1c1,-1 2,-1 3,1l20 34c1,1 0,3 -1,3z"/>
   </g>
   <path class="fil2" d="M367 181l-51 5c-4,1 -8,-4 -5,-7l5 -8 -41 -24c-6,-3 -13,-3 -19,0l-114 66c-6,3 -10,10 -10,17l0 131c0,7 4,13 10,17l114 65c6,4 13,4 19,0l17 -10c2,-1 5,0 6,2l19 32c1,2 0,3 -1,4l-41 24c-6,3 -13,3 -19,0l-159 -92c-6,-3 -10,-9 -10,-16l0 -183c0,-7 4,-14 10,-17l159 -92c6,-3 13,-3 19,0l65 38c0,0 0,0 0,0l5 -8c3,-3 8,-3 9,2l16 48c1,3 -1,5 -3,6z"/>
   <g>
    <path class="fil3" d="M199 354l0 -23c3,-3 8,-7 13,-11 6,-5 11,-9 14,-12 3,-3 7,-6 11,-11 4,-4 7,-7 9,-10 6,-8 9,-15 9,-20 0,-10 -5,-15 -13,-15 -5,0 -8,1 -11,4 -2,3 -3,8 -3,13l-29 0c0,-14 4,-25 12,-32 8,-7 19,-11 32,-11 13,0 24,4 31,12 8,7 11,16 11,27 0,8 -1,15 -5,22 -2,3 -4,6 -5,9 -2,2 -4,5 -8,9 -4,3 -6,6 -8,8 -1,1 -4,4 -9,8 -4,4 -7,7 -8,8l46 0 0 25 -89 0z"/>
    <path class="fil4" d="M379 355l0 -23 -60 0 0 -24 56 -80 34 0 0 78 15 0 0 26 -15 0 0 23 -30 0zm2 -49l0 0 0 -44 -28 44 28 0z"/>
   </g>
  </g>
 </g>
</svg>
