<?xml version="1.0" encoding="UTF-8"?>
<!DOCTYPE svg PUBLIC "-//W3C//DTD SVG 1.1//EN" "http://www.w3.org/Graphics/SVG/1.1/DTD/svg11.dtd">
<!-- Creator: CorelDRAW X8 -->
<svg xmlns="http://www.w3.org/2000/svg" xml:space="preserve" width="933px" height="1122px" version="1.1" style="shape-rendering:geometricPrecision; text-rendering:geometricPrecision; image-rendering:optimizeQuality; fill-rule:evenodd; clip-rule:evenodd"
viewBox="0 0 933000 1121962"
 xmlns:xlink="http://www.w3.org/1999/xlink">
 <defs>
  <style type="text/css">
   <![CDATA[
    .fil4 {fill:#FEFEFE;fill-rule:nonzero}
    .fil3 {fill:url(#id0);fill-rule:nonzero}
    .fil1 {fill:url(#id1);fill-rule:nonzero}
    .fil0 {fill:url(#id2);fill-rule:nonzero}
    .fil2 {fill:url(#id3);fill-rule:nonzero}
   ]]>
  </style>
  <radialGradient id="id0" gradientUnits="userSpaceOnUse" gradientTransform="matrix(-0.50465 -1.57419 1.58083 -0.50253 -585761 2.49027E+06)" cx="643581" cy="983106" r="533211" fx="643581" fy="983106">
   <stop offset="0" style="stop-opacity:1; stop-color:#00AAA4"/>
   <stop offset="0.509804" style="stop-opacity:1; stop-color:#46C1F0"/>
   <stop offset="1" style="stop-opacity:1; stop-color:#4362AA"/>
  </radialGradient>
  <radialGradient id="id1" gradientUnits="userSpaceOnUse" gradientTransform="matrix(-9.56914 -16.7901 16.4698 -9.75576 -9.16161E+06 2.25638E+07)" xlink:href="#id0" cx="699835" cy="1.00537e+06" r="63521.9" fx="699835" fy="1.00537e+06">
  </radialGradient>
  <radialGradient id="id2" gradientUnits="userSpaceOnUse" gradientTransform="matrix(-10.3149 -17.8467 17.7523 -10.3691 -9.58104E+06 2.49562E+07)" xlink:href="#id0" cx="750015" cy="1.01775e+06" r="60019.1" fx="750015" fy="1.01775e+06">
  </radialGradient>
  <radialGradient id="id3" gradientUnits="userSpaceOnUse" gradientTransform="matrix(-10.6101 -18.5877 18.2601 -10.7995 -9.47541E+06 2.5587E+07)" xlink:href="#id0" cx="746036" cy="993258" r="55856" fx="746036" fy="993258">
  </radialGradient>
 </defs>
 <g id="Слой_x0020_1">
  <metadata id="CorelCorpID_0Corel-Layer"/>
  <g id="_2736722602272">
   <g>
    <path class="fil0" d="M713356 862522c-3125,-3125 -6249,-6250 -12498,-3125l-18749 12499c-3125,0 -3125,6250 -3125,9374l53121 93743c3125,3125 9375,3125 12499,3125l18748 -12498c3125,-3125 6250,-6250 3125,-9375l-53121 -93743z"/>
    <path class="fil1" d="M650861 900019c0,-6250 -6250,-6250 -12499,-3125l-31247 15624c-3125,3125 -6250,9375 -3125,12498l53121 93743c3125,3125 9375,3125 12498,3125l31248 -18748c6250,-3125 6250,-9375 3125,-12499l-53121 -90618z"/>
    <path class="fil2" d="M757104 834400c0,-3125 -6250,-3125 -9375,-3125l-3125 3125c-3125,3125 -6250,6250 -3125,9374l53120 96868c3125,3125 6250,3125 9375,0l6250 0c3125,-3125 3125,-6250 3125,-9375l-56245 -96867z"/>
    <path class="fil3" d="M578991 943766c-3125,-3125 -12498,-6250 -18748,-3125l-46872 28124c-15624,9374 -37497,9374 -53121,0l-312476 -181236c-15623,-9375 -24998,-24999 -24998,-46872l0 -359348c0,-18749 9375,-37497 24998,-46872l312476 -178112c15624,-9375 37497,-9375 53121,0l112491 65620 -12498 21874c-6250,9375 0,21873 12498,18748l84369 -9374 0 0 15624 0 40622 -6250c6250,0 9375,-6250 9375,-15624l-46872 -131240c0,-12499 -15624,-15624 -21873,-6250l-15624 21874c0,0 0,0 0,0l-178112 -103118c-15624,-9375 -37497,-9375 -53121,0l-434342 253105c-15624,9375 -28124,24999 -28124,43747l0 503087c0,18748 12499,37497 28124,46872l434342 249981c15624,9375 37497,9375 53121,0l112491 -62495c3125,-3125 6250,-9375 3125,-12499l-49996 -90618 0 1z"/>
   </g>
   <path class="fil4" d="M307138 728157l0 -62496c9375,-9375 21873,-18748 37497,-34372 15623,-12499 28123,-24998 37497,-31247 9375,-9375 21874,-18749 31247,-31247 12499,-12499 21874,-21874 28124,-31248 15623,-21873 24998,-40622 24998,-56245 0,-28124 -12498,-43747 -37497,-43747 -12499,0 -21874,6249 -31247,12498 -6250,9375 -9375,21874 -9375,37497l-84369 0c0,-40622 12498,-68744 37497,-90618 21873,-21873 53121,-31247 90618,-31247 37497,0 68744,12499 90618,34372 18748,18749 31247,46872 31247,78120 0,21873 -6250,43747 -15624,59370 -6250,9375 -12498,18749 -15623,24999 -3125,9375 -12499,18748 -21874,28123 -9375,9375 -18748,18749 -21873,21874 -6250,6250 -12499,12499 -24999,24998 -15623,12499 -21873,18749 -24998,21874l131240 0 0 68744 -253107 0 3 -2zm506211 -134365l0 -124990 -78119 124990 78119 0zm-6250 140615l0 -65621 -168737 0 0 -68744 159364 -228108 96867 0 0 221858 40623 0 0 74994 -40623 0 0 65621 -87492 0 -2 0z"/>
  </g>
 </g>
</svg>
