<?xml version="1.0" encoding="UTF-8"?>
<!DOCTYPE svg PUBLIC "-//W3C//DTD SVG 1.1//EN" "http://www.w3.org/Graphics/SVG/1.1/DTD/svg11.dtd">
<!-- Creator: CorelDRAW X8 -->
<svg xmlns="http://www.w3.org/2000/svg" xml:space="preserve" width="177px" height="283px" version="1.1" style="shape-rendering:geometricPrecision; text-rendering:geometricPrecision; image-rendering:optimizeQuality; fill-rule:evenodd; clip-rule:evenodd"
viewBox="0 0 177 283"
 xmlns:xlink="http://www.w3.org/1999/xlink">
 <defs>
  <style type="text/css">
   <![CDATA[
    .fil4 {fill:#FEFEFE;fill-rule:nonzero}
    .fil0 {fill:url(#id0);fill-rule:nonzero}
    .fil1 {fill:url(#id1);fill-rule:nonzero}
    .fil5 {fill:url(#id2);fill-rule:nonzero}
    .fil2 {fill:url(#id3);fill-rule:nonzero}
    .fil3 {fill:url(#id4);fill-rule:nonzero}
   ]]>
  </style>
  <linearGradient id="id0" gradientUnits="userSpaceOnUse" x1="50.6114" y1="196.33" x2="194.442" y2="303.516">
   <stop offset="0" style="stop-opacity:1; stop-color:#00ACAD"/>
   <stop offset="0.968627" style="stop-opacity:1; stop-color:#393185"/>
   <stop offset="1" style="stop-opacity:1; stop-color:white"/>
  </linearGradient>
  <radialGradient id="id1" gradientUnits="userSpaceOnUse" gradientTransform="matrix(-10.6422 -18.3166 18.3154 -10.642 -1860 4831)" cx="141.875" cy="191.719" r="19.1667" fx="141.875" fy="191.719">
   <stop offset="0" style="stop-opacity:1; stop-color:#00AAA4"/>
   <stop offset="0.509804" style="stop-opacity:1; stop-color:#46C1F0"/>
   <stop offset="1" style="stop-opacity:1; stop-color:#4362AA"/>
  </radialGradient>
  <radialGradient id="id2" gradientUnits="userSpaceOnUse" gradientTransform="matrix(-0.50655 -1.58679 1.58678 -0.506552 -120 488)" xlink:href="#id1" cx="124.031" cy="193.291" r="170.521" fx="124.031" fy="193.291">
  </radialGradient>
  <radialGradient id="id3" gradientUnits="userSpaceOnUse" gradientTransform="matrix(-9.99921 -17.2095 17.21 -9.99948 -1732 4552)" xlink:href="#id1" cx="142.138" cy="191.483" r="20.3987" fx="142.138" fy="191.483">
  </radialGradient>
  <radialGradient id="id4" gradientUnits="userSpaceOnUse" gradientTransform="matrix(-11.4357 -19.6808 19.6809 -11.4345 -2010 5171)" xlink:href="#id1" cx="141.663" cy="191.646" r="17.8381" fx="141.663" fy="191.646">
  </radialGradient>
 </defs>
 <g id="Слой_x0020_1">
  <metadata id="CorelCorpID_0Corel-Layer"/>
  <g id="_2047948896816">
   <path class="fil0" d="M60 217c11,7 21,14 34,18 12,-4 21,-11 31,-17l7 -5c6,-4 11,-7 12,-6 1,1 2,2 1,4l0 0c-7,12 -15,22 -23,32 -8,10 -17,20 -26,29l0 0 0 0c-1,1 -2,1 -3,1 -1,0 -2,-1 -3,-1l0 0 0 0c-9,-9 -18,-19 -26,-29 -9,-10 -17,-21 -23,-33l0 0c-1,-2 -1,-3 0,-4 2,0 6,3 12,6l7 5z"/>
   <path class="fil1" d="M136 171c-1,-1 -2,-1 -2,-1l-4 2c-1,0 -1,1 -1,2l10 17c1,1 2,1 3,1l3 -2c1,-1 1,-1 1,-2l-10 -17z"/>
   <path class="fil2" d="M124 177c0,-1 -1,-1 -2,0l-6 3c-1,1 -1,2 -1,2l10 18c1,0 2,1 2,0l6 -3c1,-1 2,-2 1,-3l-10 -17z"/>
   <path class="fil3" d="M144 165c0,0 -1,0 -2,0l-1 0c0,1 0,2 0,2l10 18c0,1 1,1 2,0l1 0c0,-1 1,-1 0,-2l-10 -18z"/>
   <path class="fil4" d="M173 122l-6 0 0 -24c0,-2 -1,-3 -2,-3l-11 0c-1,0 -2,1 -3,2l-2 8c0,0 -1,1 -1,1l0 13c0,2 -1,3 -2,3l-8 0c-1,0 -1,-1 -1,-1 -1,0 -1,-1 0,-2l12 -34c1,-2 0,-3 -2,-3l-10 0 0 0 -1 0 0 0 -3 0c-1,0 -3,1 -3,2l-15 41c-2,7 -4,10 7,10l24 0c1,0 2,1 2,2l0 8c0,2 2,3 3,3l14 0c1,0 2,-1 2,-2l0 -11 1 0 5 -1c1,-1 2,-2 2,-3l0 -7c0,-1 -1,-2 -2,-2z"/>
   <path class="fil5" d="M110 186c0,-1 -2,-1 -3,-1l-9 5c-3,2 -7,2 -10,0l-58 -33c-3,-2 -5,-5 -5,-9l0 -67c0,-4 2,-7 5,-9l58 -34c3,-1 7,-1 10,0l21 13 -2 4c-1,1 0,4 2,3l16 -1 0 0 3 -1 7 0c2,-1 2,-2 2,-3l-8 -25c-1,-2 -3,-3 -4,-1l-3 4c0,0 0,0 0,0l-34 -19c-3,-2 -7,-2 -10,0l-81 47c-3,2 -5,5 -5,8l0 94c0,4 2,7 5,9l81 47c3,2 7,2 10,0l21 -12c1,-1 1,-2 1,-2l-10 -17z"/>
   <path class="fil4" d="M60 96l-1 -10c0,-1 1,-3 3,-3 7,-1 14,-2 22,-2 8,0 14,2 18,4 4,2 6,7 6,13 0,3 0,7 -1,9 -2,3 -4,6 -9,10l-12 12c-1,1 0,3 1,2 1,0 3,0 5,0l15 0c2,0 3,2 3,3l0 11c0,2 -2,4 -4,4l-43 0c-3,0 -4,-2 -4,-4l0 -7c0,-3 1,-6 2,-8l14 -14c8,-7 12,-13 12,-15 0,-1 0,-2 -1,-2 -1,0 -2,0 -5,0 -6,0 -12,0 -18,0 -2,0 -3,-2 -3,-3z"/>
  </g>
 </g>
</svg>
