<?xml version="1.0" encoding="UTF-8"?>
<!DOCTYPE svg PUBLIC "-//W3C//DTD SVG 1.1//EN" "http://www.w3.org/Graphics/SVG/1.1/DTD/svg11.dtd">
<!-- Creator: CorelDRAW X8 -->
<svg xmlns="http://www.w3.org/2000/svg" xml:space="preserve" width="177px" height="283px" version="1.1" style="shape-rendering:geometricPrecision; text-rendering:geometricPrecision; image-rendering:optimizeQuality; fill-rule:evenodd; clip-rule:evenodd"
viewBox="0 0 177000 283200"
 xmlns:xlink="http://www.w3.org/1999/xlink">
 <defs>
  <style type="text/css">
   <![CDATA[
    .fil4 {fill:#FEFEFE;fill-rule:nonzero}
    .fil0 {fill:url(#id0);fill-rule:nonzero}
    .fil1 {fill:url(#id1);fill-rule:nonzero}
    .fil5 {fill:url(#id2);fill-rule:nonzero}
    .fil2 {fill:url(#id3);fill-rule:nonzero}
    .fil3 {fill:url(#id4);fill-rule:nonzero}
   ]]>
  </style>
  <linearGradient id="id0" gradientUnits="userSpaceOnUse" x1="50611.4" y1="196330" x2="194442" y2="303516">
   <stop offset="0" style="stop-opacity:1; stop-color:#00ACAD"/>
   <stop offset="0.968627" style="stop-opacity:1; stop-color:#393185"/>
   <stop offset="1" style="stop-opacity:1; stop-color:white"/>
  </linearGradient>
  <radialGradient id="id1" gradientUnits="userSpaceOnUse" gradientTransform="matrix(-10.6422 -18.3166 18.3154 -10.642 -1.85968E+06 4.83067E+06)" cx="141875" cy="191719" r="19166.7" fx="141875" fy="191719">
   <stop offset="0" style="stop-opacity:1; stop-color:#00AAA4"/>
   <stop offset="0.509804" style="stop-opacity:1; stop-color:#46C1F0"/>
   <stop offset="1" style="stop-opacity:1; stop-color:#4362AA"/>
  </radialGradient>
  <radialGradient id="id2" gradientUnits="userSpaceOnUse" gradientTransform="matrix(-0.50655 -1.58679 1.58678 -0.506552 -119852 488014)" xlink:href="#id1" cx="124031" cy="193291" r="170521" fx="124031" fy="193291">
  </radialGradient>
  <radialGradient id="id3" gradientUnits="userSpaceOnUse" gradientTransform="matrix(-9.99921 -17.2095 17.21 -9.99948 -1.73203E+06 4.55234E+06)" xlink:href="#id1" cx="142138" cy="191483" r="20398.7" fx="142138" fy="191483">
  </radialGradient>
  <radialGradient id="id4" gradientUnits="userSpaceOnUse" gradientTransform="matrix(-11.4357 -19.6808 19.6809 -11.4345 -2.01009E+06 5.17106E+06)" xlink:href="#id1" cx="141663" cy="191646" r="17838.1" fx="141663" fy="191646">
  </radialGradient>
 </defs>
 <g id="Слой_x0020_1">
  <metadata id="CorelCorpID_0Corel-Layer"/>
  <path class="fil0" d="M60108 216917c10731,7058 20662,13588 33553,18062 12015,-4444 21509,-10686 31732,-17409l6809 -4449c5890,-3816 10323,-6687 12066,-6000 1143,449 1428,1525 694,3387l-75 148c-6743,11930 -14455,22677 -22700,32714 -8241,10030 -17015,19352 -25897,28444l-107 110 -132 79c-931,557 -1984,788 -3013,761 -1102,-28 -2190,-356 -3077,-888l-133 -80 -107 -109c-8882,-9090 -17785,-18545 -26154,-28707 -8376,-10170 -16214,-21048 -22960,-32979l-74 -147c-734,-1862 -448,-2940 689,-3388 1750,-687 6187,2189 12082,6008l6804 4443z"/>
  <path class="fil1" d="M135668 170509c-421,-728 -1353,-978 -2083,-557l-3580 2065c-728,421 -978,1353 -557,2083l9991 17305c422,729 1354,980 2083,559l3579 -2068c729,-421 979,-1352 558,-2081l-9991 -17306z"/>
  <path class="fil2" d="M124170 177264c-448,-777 -1443,-1043 -2221,-594l-6027 3479c-778,450 -1044,1444 -596,2221l9891 17130c448,778 1443,1045 2219,595l6030 -3480c777,-448 1042,-1443 594,-2221l-9890 -17130z"/>
  <path class="fil3" d="M144069 165360c-350,-605 -1125,-813 -1729,-463l-1010 583c-606,350 -812,1123 -463,1728l10250 17755c350,605 1124,811 1730,462l1008 -583c606,-349 812,-1122 463,-1727l-10249 -17755z"/>
  <path class="fil4" d="M172812 121695l-5454 0 0 -24142c0,-1298 -1052,-2351 -2349,-2351l-11320 0c-1122,0 -2118,721 -2470,1787l-2574 7796c-130,393 -195,804 -195,1217l0 13165c0,1396 -1133,2528 -2528,2528l-7742 0c-704,0 -1215,-225 -1536,-673 -320,-447 -353,-1023 -96,-1726l12507 -34576c453,-1250 -472,-2568 -1802,-2568l-10555 0 0 -11 -989 0 0 11 -2599 0c-1396,0 -2643,866 -3133,2173l-15216 40729c-1879,7091 -3324,9885 7102,9885l24188 0c1325,0 2399,1074 2399,2399l0 8037c0,1658 1343,3002 3001,3002l13817 0c1154,0 2090,-936 2090,-2090l0 -11348 193 0 5240 -1361c1266,-328 2150,-1471 2150,-2779l0 -6976c0,-1175 -954,-2128 -2129,-2128z"/>
  <path class="fil5" d="M110308 185985c-620,-1074 -1993,-1442 -3068,-823l-8898 5137c-3077,1777 -6868,1777 -9947,0l-58332 -33678c-3078,-1777 -4973,-5061 -4973,-8615l0 -67354c0,-3554 1895,-6837 4972,-8614l58333 -33679c3077,-1777 6870,-1777 9947,0l21034 12144 -2660 4140c-1148,1789 439,4074 2517,3622l15852 -1629 0 -4 3125 -316 7175 -737c1288,-281 2104,-1552 1825,-2840l-8355 -25026c-453,-2076 -3190,-2570 -4340,-781l-2688 4185c-32,-19 -55,-51 -88,-69l-33397 -19282c-3077,-1777 -6868,-1778 -9947,0l-81362 46974c-3078,1777 -4974,5061 -4974,8616l0 93948c0,3553 1896,6838 4974,8615l81361 46973c3078,1777 6871,1777 9948,0l20986 -12115c757,-438 1017,-1408 580,-2165l-9600 -16627z"/>
  <path class="fil4" d="M59699 95513l-403 -9143c-73,-1665 1096,-3146 2741,-3405 6856,-1081 14154,-1623 21893,-1623 8064,0 14158,1200 18285,3599 4125,2400 6190,6704 6190,12909 0,3649 -623,6768 -1871,9360 -1248,2589 -3983,5997 -8207,10220l-12356 11673c-924,873 -222,2397 1043,2271 1413,-143 2911,-183 4499,-121l15408 0c1667,0 3020,1352 3020,3019l0 10626c0,2111 -1711,3821 -3821,3821l-43608 0c-2166,0 -3920,-1754 -3920,-3919l0 -6445c0,-3328 960,-6111 2879,-8351l13820 -13532c7871,-7871 11806,-13181 11806,-15935 0,-893 -399,-1455 -1198,-1678 -801,-224 -2351,-335 -4656,-335 -6667,0 -12732,45 -18198,132 -1784,29 -3267,-1363 -3346,-3143z"/>
 </g>
</svg>
