<?xml version="1.0" encoding="UTF-8"?>
<!DOCTYPE svg PUBLIC "-//W3C//DTD SVG 1.1//EN" "http://www.w3.org/Graphics/SVG/1.1/DTD/svg11.dtd">
<!-- Creator: CorelDRAW X8 -->
<svg xmlns="http://www.w3.org/2000/svg" xml:space="preserve" width="1081px" height="356px" version="1.1" style="shape-rendering:geometricPrecision; text-rendering:geometricPrecision; image-rendering:optimizeQuality; fill-rule:evenodd; clip-rule:evenodd"
viewBox="0 0 1081 356"
 xmlns:xlink="http://www.w3.org/1999/xlink">
 <defs>
  <style type="text/css">
   <![CDATA[
    .fil0 {fill:#FEFEFE;fill-rule:nonzero}
    .fil1 {fill:#3FC0F0;fill-rule:nonzero}
    .fil5 {fill:url(#id0);fill-rule:nonzero}
    .fil4 {fill:url(#id1);fill-rule:nonzero}
    .fil3 {fill:url(#id2);fill-rule:nonzero}
    .fil2 {fill:url(#id3);fill-rule:nonzero}
   ]]>
  </style>
  <radialGradient id="id0" gradientUnits="userSpaceOnUse" gradientTransform="matrix(-0.506552 -1.58679 1.58679 -0.506552 -182 803)" cx="209.059" cy="312.962" r="170.726" fx="209.059" fy="312.962">
   <stop offset="0" style="stop-opacity:1; stop-color:#00AAA4"/>
   <stop offset="0.509804" style="stop-opacity:1; stop-color:#46C1F0"/>
   <stop offset="1" style="stop-opacity:1; stop-color:#4362AA"/>
  </radialGradient>
  <radialGradient id="id1" gradientUnits="userSpaceOnUse" gradientTransform="matrix(-11.4354 -19.6814 19.6804 -11.4349 -3129 8565)" xlink:href="#id0" cx="239.238" cy="310.148" r="17.8595" fx="239.238" fy="310.148">
  </radialGradient>
  <radialGradient id="id2" gradientUnits="userSpaceOnUse" gradientTransform="matrix(-9.99947 -17.21 17.2105 -9.99976 -2693 7540)" xlink:href="#id0" cx="240.052" cy="309.869" r="20.4232" fx="240.052" fy="309.869">
  </radialGradient>
  <radialGradient id="id3" gradientUnits="userSpaceOnUse" gradientTransform="matrix(-10.6426 -18.3169 18.3161 -10.6422 -2893 8001)" xlink:href="#id0" cx="239.602" cy="310.273" r="19.1898" fx="239.602" fy="310.273">
  </radialGradient>
 </defs>
 <g id="Слой_x0020_1">
  <metadata id="CorelCorpID_0Corel-Layer"/>
  <g id="_2047856606096">
   <path class="fil0" d="M340 217c-11,-11 -17,-25 -17,-42 0,-17 6,-31 17,-42 11,-11 25,-16 41,-16 13,0 24,3 34,10 10,7 16,16 20,28l-33 0c-4,-9 -11,-13 -20,-13 -10,0 -17,3 -23,9 -5,6 -8,14 -8,24 0,10 3,18 8,24 6,6 13,9 23,9 9,0 16,-5 20,-13l33 0c-4,12 -10,21 -20,28 -10,7 -21,10 -34,10 -16,0 -30,-5 -41,-16zm198 15l-7 -19 -40 0 -7 19 -29 0 39 -114 34 0 39 114 -29 0zm-40 -40l26 0 -13 -40 -13 40zm182 -39c0,8 -3,15 -9,22 -2,4 -7,7 -13,9 -5,3 -12,4 -20,4l-17 0 0 44 -28 0 0 -113 45 0c13,0 23,3 31,10 7,7 11,15 11,24zm-59 14l17 0c4,0 7,-1 10,-4 2,-2 4,-6 4,-10 0,-4 -2,-7 -4,-10 -3,-2 -6,-3 -10,-3l-17 0 0 27zm88 65l0 -113 27 0 0 113 -27 0zm56 -92l0 -21 90 0 0 21 -31 0 0 92 -28 0 0 -92 -31 0zm191 92l-6 -19 -41 0 -7 19 -29 0 40 -114 33 0 39 114 -29 0zm-40 -40l27 0 -14 -40 -13 40zm95 -73l28 0 0 92 34 0 0 21 -62 0 0 -113z"/>
   <path class="fil1" d="M329 298l0 -37 21 0 0 4 -16 0 0 13 12 0 0 3 -12 0 0 17 -5 0zm30 -13l0 -24 5 0 0 24c0,3 0,5 2,7 2,1 4,2 7,2 2,0 5,-1 6,-2 2,-2 3,-4 3,-7l0 -24 4 0 0 24c0,4 -1,8 -4,10 -2,2 -5,3 -9,3 -4,0 -8,-1 -10,-3 -3,-2 -4,-6 -4,-10zm63 -24l5 0 0 37 -5 0 -19 -29 0 29 -5 0 0 -37 5 0 19 29 0 -29zm21 33l7 0c5,0 8,-1 11,-4 2,-2 3,-6 3,-10 0,-5 -1,-8 -3,-11 -3,-2 -6,-3 -11,-3l-7 0 0 28zm7 -33c6,0 11,2 14,5 4,4 5,8 5,14 0,6 -1,10 -5,13 -3,3 -8,5 -14,5l-11 0 0 -37 11 0zm29 37l0 -37 5 0 0 37 -5 0zm41 -37l5 0 0 37 -5 0 -19 -29 0 29 -5 0 0 -37 5 0 19 29 0 -29zm33 37c-5,0 -10,-2 -13,-5 -4,-4 -6,-8 -6,-13 0,-6 2,-10 6,-14 3,-3 8,-5 13,-5 4,0 7,1 10,3 3,2 5,4 7,8l-6 0c-2,-5 -6,-7 -11,-7 -4,0 -7,2 -10,4 -2,3 -4,6 -4,11 0,4 2,7 4,10 3,3 6,4 10,4 4,0 7,-1 9,-3 2,-2 4,-5 4,-9l-15 0 0 -4 20 0 0 4c0,5 -2,9 -6,12 -3,3 -7,4 -12,4zm44 0l0 -37 5 0 0 37 -5 0zm41 -37l4 0 0 37 -4 0 -20 -29 0 29 -5 0 0 -37 5 0 20 29 0 -29zm31 36l0 -3c1,-1 2,-2 4,-3 2,-2 3,-3 4,-4 1,-1 2,-2 3,-3 2,-1 3,-3 4,-4 0,0 1,-1 2,-3 1,-2 2,-4 2,-6 0,-3 0,-4 -2,-6 -1,-1 -2,-2 -5,-2 -2,0 -4,1 -5,3 -2,1 -2,3 -3,6l-4 0c0,-4 1,-7 3,-10 3,-2 6,-3 9,-3 4,0 6,1 9,3 2,2 3,5 3,9 0,4 -2,8 -6,12 -2,2 -3,3 -4,4 -2,2 -4,4 -7,6l18 0 0 4 -25 0zm53 -12l0 -21 -14 21 14 0zm0 13l0 -9 -19 0 0 -3 18 -26 6 0 0 25 5 0 0 4 -5 0 0 9 -5 0zm43 -37l4 0 0 37 -4 0 0 -17 -19 0 0 17 -5 0 0 -37 5 0 0 17 19 0 0 -17zm21 22l0 15 -5 0 0 -37 12 0c4,0 7,1 9,3 3,2 4,5 4,8 0,3 -1,5 -3,7 -1,2 -4,3 -7,4l10 15 -6 0 -9 -15 -5 0zm0 -18l0 14 7 0c3,0 5,0 6,-2 1,-1 2,-3 2,-5 0,-4 -3,-7 -8,-7l-7 0zm35 6c0,2 1,3 2,4 0,0 1,1 2,1 2,1 3,1 4,2 2,0 3,0 5,1 1,0 2,1 3,1 2,1 2,2 3,3 1,1 1,3 1,5 0,3 -1,5 -3,7 -2,2 -5,3 -9,3 -3,0 -6,-1 -9,-2 -2,-2 -3,-4 -3,-7l5 0c0,1 1,3 2,4 1,1 3,1 5,1 2,0 4,0 6,-1 1,-2 2,-3 2,-5 0,-1 -1,-2 -1,-3 -1,-1 -2,-2 -3,-2 -1,-1 -3,-1 -4,-1 -2,-1 -3,-1 -4,-1 -2,-1 -3,-1 -4,-2 -1,-1 -2,-2 -3,-3 -1,-1 -1,-3 -1,-5 0,-3 1,-5 3,-7 2,-2 5,-3 9,-3 3,0 6,1 8,3 2,1 3,3 4,6l-6 0c0,-1 0,-2 -2,-3 -1,-1 -3,-2 -5,-2 -2,0 -3,1 -5,2 -1,1 -2,2 -2,4zm74 19c2,-3 3,-6 3,-10 0,-5 -1,-8 -3,-11 -3,-2 -6,-4 -10,-4 -4,0 -8,2 -10,4 -3,3 -4,6 -4,11 0,4 1,7 4,10 3,3 6,4 10,4 4,0 7,-1 10,-4zm-10 8c-5,0 -10,-1 -13,-5 -4,-4 -6,-8 -6,-13 0,-6 2,-10 6,-14 3,-3 8,-5 13,-5 5,0 9,2 13,5 4,4 5,8 5,14 0,5 -1,10 -5,13 -4,4 -8,5 -13,5zm33 -15l0 15 -5 0 0 -37 12 0c4,0 7,1 9,3 3,2 4,5 4,8 0,3 -1,5 -3,7 -1,2 -4,3 -7,4l10 15 -6 0 -9 -15 -5 0zm0 -18l0 14 7 0c3,0 5,0 6,-2 1,-1 2,-3 2,-5 0,-4 -3,-7 -8,-7l-7 0zm47 -4l5 0 0 33 13 0 0 4 -18 0 0 -37zm46 0l0 4 -14 0 0 13 12 0 0 3 -12 0 0 13 14 0 0 4 -19 0 0 -37 19 0zm15 10c0,2 0,3 1,4 1,0 2,1 3,1 1,1 2,1 4,2 1,0 3,0 4,1 2,0 3,1 4,1 1,1 2,2 3,3 1,1 1,3 1,5 0,3 -1,5 -3,7 -2,2 -5,3 -9,3 -4,0 -7,-1 -9,-2 -2,-2 -4,-4 -4,-7l5 0c1,1 1,3 2,4 2,1 3,1 6,1 2,0 4,0 5,-1 2,-2 2,-3 2,-5 0,-1 0,-2 -1,-3 -1,-1 -2,-2 -3,-2 -1,-1 -2,-1 -4,-1 -1,-1 -2,-1 -4,-1 -1,-1 -3,-1 -4,-2 -1,-1 -2,-2 -2,-3 -1,-1 -2,-3 -2,-5 0,-3 1,-5 4,-7 2,-2 5,-3 8,-3 4,0 7,1 9,3 2,1 3,3 3,6l-5 0c0,-1 -1,-2 -2,-3 -1,-1 -3,-2 -5,-2 -2,0 -4,1 -5,2 -1,1 -2,2 -2,4zm35 0c0,2 0,3 1,4 1,0 2,1 3,1 1,1 2,1 4,2 1,0 2,0 4,1 1,0 3,1 4,1 1,1 2,2 3,3 0,1 1,3 1,5 0,3 -1,5 -4,7 -2,2 -5,3 -8,3 -4,0 -7,-1 -9,-2 -3,-2 -4,-4 -4,-7l5 0c0,1 1,3 2,4 1,1 3,1 5,1 3,0 5,0 6,-1 1,-2 2,-3 2,-5 0,-1 0,-2 -1,-3 -1,-1 -2,-2 -3,-2 -1,-1 -2,-1 -4,-1 -1,-1 -3,-1 -4,-1 -1,-1 -3,-1 -4,-2 -1,-1 -2,-2 -3,-3 0,-1 -1,-3 -1,-5 0,-3 1,-5 3,-7 3,-2 6,-3 9,-3 4,0 6,1 8,3 3,1 4,3 4,6l-5 0c0,-1 -1,-2 -2,-3 -2,-1 -3,-2 -5,-2 -2,0 -4,1 -5,2 -1,1 -2,2 -2,4z"/>
   <path class="fil0" d="M99 231l0 -20c3,-3 7,-6 12,-11 5,-4 9,-8 12,-10 3,-3 7,-6 10,-10 4,-4 7,-7 9,-10 5,-7 8,-13 8,-18 0,-9 -4,-14 -12,-14 -4,0 -7,2 -10,4 -2,3 -3,7 -3,12l-27 0c0,-13 4,-22 12,-29 7,-7 17,-10 29,-10 12,0 22,4 29,11 6,6 10,15 10,25 0,7 -2,14 -5,19 -2,3 -4,6 -5,8 -1,3 -4,6 -7,9 -3,3 -6,6 -7,7 -2,2 -4,4 -8,8 -5,4 -7,6 -8,7l42 0 0 22 -81 0zm162 -43l0 -40 -25 40 25 0zm-2 45l0 -21 -54 0 0 -22 51 -73 31 0 0 71 13 0 0 24 -13 0 0 21 -28 0z"/>
   <path class="fil2" d="M229 274c-1,-1 -2,-2 -4,-1l-6 4c-1,0 -1,2 -1,3l17 30c1,1 3,1 4,1l6 -4c1,-1 2,-2 1,-3l-17 -30z"/>
   <path class="fil3" d="M209 286c0,-2 -2,-2 -4,-1l-10 5c-1,1 -2,3 -1,4l17 30c1,1 3,1 4,1l10 -6c2,-1 2,-3 1,-4l-17 -29z"/>
   <path class="fil4" d="M243 265c0,-1 -2,-1 -3,-1l-1 1c-1,1 -2,2 -1,3l17 31c1,1 2,1 3,0l2 0c1,-1 1,-2 1,-3l-18 -31z"/>
   <path class="fil5" d="M186 300c-1,-1 -4,-2 -6,-1l-15 9c-5,3 -12,3 -17,0l-100 -58c-5,-3 -8,-8 -8,-15l0 -115c0,-6 3,-12 8,-15l100 -57c5,-3 12,-3 17,0l36 21 -4 7c-2,3 0,7 4,6l27 -3 0 0 5 0 13 -2c2,0 3,-2 3,-5l-15 -42c0,-4 -5,-5 -7,-2l-5 7c0,0 0,0 0,0l-57 -33c-5,-3 -12,-3 -17,0l-139 81c-5,3 -9,8 -9,14l0 161c0,6 4,12 9,15l139 80c5,3 12,3 17,0l36 -20c1,-1 2,-3 1,-4l-16 -29z"/>
  </g>
 </g>
</svg>
