<svg xmlns="http://www.w3.org/2000/svg" xmlns:xlink="http://www.w3.org/1999/xlink" viewBox="0 0 222 221.99"><defs><style>.cls-1{fill:url(#Новый_образец_градиентной_залив);}.cls-2{fill:url(#Новый_образец_градиентной_залив-2);}.cls-3{fill:url(#Новый_образец_градиентной_залив-3);}.cls-4{fill:url(#Новый_образец_градиентной_залив-4);}.cls-5{fill:url(#Новый_образец_градиентной_залив-5);}.cls-6{fill:url(#Новый_образец_градиентной_залив-6);}.cls-7{fill:url(#Новый_образец_градиентной_залив-7);}.cls-8{fill:url(#Новый_образец_градиентной_залив-8);}</style><linearGradient id="Новый_образец_градиентной_залив" x1="-33.32" y1="14.13" x2="172.16" y2="210.62" gradientUnits="userSpaceOnUse"><stop offset="0" stop-color="#12cfb0"/><stop offset="1" stop-color="#2c63df"/></linearGradient><linearGradient id="Новый_образец_градиентной_залив-2" x1="-36.13" y1="17.06" x2="169.36" y2="213.55" xlink:href="#Новый_образец_градиентной_залив"/><linearGradient id="Новый_образец_градиентной_залив-3" x1="48.78" y1="-71.74" x2="254.27" y2="124.75" xlink:href="#Новый_образец_градиентной_залив"/><linearGradient id="Новый_образец_градиентной_залив-4" x1="-22.71" y1="3.03" x2="182.78" y2="199.52" xlink:href="#Новый_образец_градиентной_залив"/><linearGradient id="Новый_образец_градиентной_залив-5" x1="-1.93" y1="-18.71" x2="203.56" y2="177.78" xlink:href="#Новый_образец_градиентной_залив"/><linearGradient id="Новый_образец_градиентной_залив-6" x1="-12.32" y1="-7.84" x2="193.17" y2="188.65" xlink:href="#Новый_образец_градиентной_залив"/><linearGradient id="Новый_образец_градиентной_залив-7" x1="-42.64" y1="23.87" x2="162.85" y2="220.36" xlink:href="#Новый_образец_градиентной_залив"/><linearGradient id="Новый_образец_градиентной_залив-8" x1="-1.46" y1="-19.2" x2="204.03" y2="177.29" xlink:href="#Новый_образец_градиентной_залив"/></defs><title>Ресурс 5</title><g id="Слой_2" data-name="Слой 2"><g id="Слой_1-2" data-name="Слой 1"><path class="cls-1" d="M166.48,97.94V48.59h-1c-12.22,0-24.44,0-36.66,0a3.87,3.87,0,0,1-4-4c.07-12.16,0-24.32,0-36.48V7H57.15Q34,7,10.83,7c-1.62,0-2.91.49-3.54,2.07A5,5,0,0,0,7,10.87Q7,52.55,7,94.22,7,152.62,7,211c0,1.68.45,3,2.11,3.69a5.61,5.61,0,0,0,2,.28q20,0,39.94,0h5.88l53.46,0,51.92,0c1.17,0,2.37,0,3.14-1a6,6,0,0,0,1-2.09,7.82,7.82,0,0,0,.06-1.94q0-18.68,0-37.37c0-1.42,0-2.83.09-4.25a3.66,3.66,0,0,1,.41-1.49c2-3.69,4-7.35,6-11,.09-.16.2-.31.45-.68,0,.52.06.8.06,1.07q0,3.35,0,6.69,0,24.16,0,48.32a10.08,10.08,0,0,1-6.26,9.81,11.06,11.06,0,0,1-4.44.91q-55.48.07-111,0c-1.36,0-2.72,0-4.08,0-1.69,0-3.38-.13-5.06-.16-.49,0-1,.16-1.49.16-10.24,0-20.48,0-30.71,0a10.18,10.18,0,0,1-9.3-5.67A9.68,9.68,0,0,1,0,211.55q0-52.1,0-104.21c0-1.33.13-2.67.15-4,0-.55-.15-1.11-.15-1.67q0-45.4,0-90.8C0,6.33,2,2.93,6.16,1a10.76,10.76,0,0,1,4.34-1C25.68,0,40.86,0,56,0h6.42Q95,0,127.64,0a4.77,4.77,0,0,1,3.6,1.5q20.4,20.42,40.83,40.8a4.41,4.41,0,0,1,1.42,3.37c0,1.63,0,3.25,0,4.88,0,1.15-.15,2.29-.15,3.44s.15,2.35.15,3.52c0,8.32,0,16.65,0,25A10.36,10.36,0,0,1,172.13,88c-1.84,3.2-3.55,6.49-5.32,9.73C166.77,97.78,166.68,97.81,166.48,97.94Zm-5.1-56.43c-.23-.27-.36-.46-.51-.61Q146.78,26.8,132.69,12.72a4.56,4.56,0,0,0-.88-.53V41.5Z"/><path class="cls-2" d="M169.77,106.82c5.54,3,11,6,16.4,8.95.44.24.47.39.24.8q-4.64,8.49-9.26,17-5.87,10.79-11.74,21.57A80.52,80.52,0,0,1,159,165.86a75,75,0,0,1-10.13,10.93q-5.88,5.16-12,10a10.92,10.92,0,0,1-3.76,1.61c-4.17,1.2-8.34,2.45-12.57,3.39a28.74,28.74,0,0,1-11.26.36,12.3,12.3,0,0,1-7.84-4.28c-1.55-1.93-1.53-4.1-1-6.36.34-1.36.61-2.75.89-4.12a1.7,1.7,0,0,0,0-.46,6.73,6.73,0,0,0-3.52,1.37,95.07,95.07,0,0,0-11.06,8.09c-1.45,1.18-3,2.26-4.47,3.39a34.41,34.41,0,0,1-4.34,2.91,28.34,28.34,0,0,1-5.24,2.24c-2.76.85-5-.69-5.62-3.54a11.69,11.69,0,0,1,1-6.88,54.48,54.48,0,0,1,5.81-9.91c1.84-2.72,3.65-5.46,5.4-8.23a13,13,0,0,0,.91-2.3l-.28-.29c-1.08.39-2.2.71-3.25,1.17a84.54,84.54,0,0,0-17.77,10.82c-5.11,4-10.31,7.87-15.63,11.57a51.54,51.54,0,0,1-8,4.31,9.23,9.23,0,0,1-7.06.31,5.29,5.29,0,0,1-3.1-5.93c.79-3.57,2.88-6.4,5.11-9.13a26.26,26.26,0,0,1,11.16-8.46,34.18,34.18,0,0,1,5.54-1.2c.5-.09,1.23-.15,1.35.47a3.26,3.26,0,0,1-.38,1.65c-.11.27-.43.47-.68.68a7.87,7.87,0,0,1-1.38,1.07,12.46,12.46,0,0,1-2.09.75,21.65,21.65,0,0,0-3,.84c-1,.48-1.91,1.3-2.92,1.83a13.61,13.61,0,0,0-4,3.59c-1.74,2.07-3.19,4.46-2.91,7.43.2,2.11,1.33,2.86,3.39,2.29a21.71,21.71,0,0,0,6.87-3.66c5.37-3.88,10.67-7.85,16-11.74a152.46,152.46,0,0,1,17.42-11.13,20.18,20.18,0,0,1,7-2.54,6.08,6.08,0,0,1,2.84.33c1.76.68,2.13,2.26,1.28,4.48a35.64,35.64,0,0,1-4.31,7.54,70,70,0,0,0-6.92,11.93A22.22,22.22,0,0,0,73.09,188c-.28,1.53.42,2.1,2,2a8.71,8.71,0,0,0,4.83-2.16c2.6-2.15,5.09-4.41,7.65-6.61A56.74,56.74,0,0,1,99.08,173a12.08,12.08,0,0,1,5.11-1.49,3.2,3.2,0,0,1,3.15,4.14c-.36,1.39-.8,2.76-1.23,4.12a5.35,5.35,0,0,0,3.12,6.36,16.5,16.5,0,0,0,6.48,1.1,50,50,0,0,0,11.62-1.51c3-.7,5.93-1.47,8.88-2.25a1,1,0,0,0,.63-.65c.39-2.23.65-4.48,1.08-6.7.67-3.43,1.28-6.87,2.2-10.24a85.71,85.71,0,0,1,3.4-10.16c1.26-3,2.93-5.93,4.48-8.86,2.38-4.48,4.81-8.93,7.24-13.39,2-3.71,4.06-7.41,6.08-11.12q3.63-6.68,7.24-13.38C168.93,108.27,169.33,107.59,169.77,106.82Z"/><path class="cls-3" d="M212,69.38l-21.72,40-16.94-9.2,2.22-4.11q4.76-8.78,9.52-17.57c3.1-5.69,6.23-11.37,9.33-17.07q4.35-8,8.67-16a3.8,3.8,0,0,1,5.51-1.61c.79.46,1.14.4,1.58-.45,1.1-2.17,2.33-4.27,3.49-6.41A3.76,3.76,0,0,1,219,35.18a3.85,3.85,0,0,1,1.47,5.45Q218.7,43.78,217,47c-.56,1-.5,1.07.52,1.67a9.62,9.62,0,0,1,2.25,1.6,3.29,3.29,0,0,1,.48,4c-1.09,2.08-2.19,4.15-3.34,6.2a1.27,1.27,0,0,0,0,1.46,35.92,35.92,0,0,1,4.18,10,26.18,26.18,0,0,1,.82,8.32,23.13,23.13,0,0,1-2.88,9.44c-3,5.49-6,11-9,16.53l-7.84,14.38c-.52.95-1,1.93-1.59,2.82a3.82,3.82,0,0,1-6.54-3.88c1.46-2.81,3-5.58,4.52-8.37q3.62-6.69,7.24-13.38c1.65-3,3.35-6.06,5-9.12a61,61,0,0,0,2.74-5.7,13.37,13.37,0,0,0,.44-7,47.1,47.1,0,0,0-1.69-6.08A3.83,3.83,0,0,0,212,69.38Z"/><path class="cls-4" d="M46.24,104.16c4.7,0,9.41,0,14.11,0h81.4c2.46,0,4,1.48,3.87,3.8a3.5,3.5,0,0,1-3.62,3.22H31.67A3.63,3.63,0,0,1,27.76,108a3.49,3.49,0,0,1,3.66-3.85c3.08,0,6.15,0,9.23,0Z"/><path class="cls-5" d="M86.76,62.56h55a3.59,3.59,0,0,1,3.57,2.1,3.38,3.38,0,0,1-2.9,4.79c-5.06.05-10.12,0-15.18,0H42.86c-3.86,0-7.72,0-11.57,0a3.27,3.27,0,0,1-3.42-2.78,3.46,3.46,0,0,1,3.07-4.11c.35,0,.71,0,1.06,0Z"/><path class="cls-6" d="M86.82,83.35h53.33c.71,0,1.42,0,2.13.07a3.41,3.41,0,0,1,3.37,3.47,3.52,3.52,0,0,1-3.43,3.39c-1.76-.09-3.53.11-5.3.11-15.64,0-31.28-.12-46.92-.14q-29.26,0-58.52,0a3.36,3.36,0,0,1-3.58-2.48,3.53,3.53,0,0,1,3.2-4.41c.27,0,.53,0,.8,0H86.82Z"/><path class="cls-7" d="M66.78,132H31.55a3.53,3.53,0,0,1-3.65-2.68A3.48,3.48,0,0,1,31.2,125h.44q35.14,0,70.28,0a3.76,3.76,0,0,1,3.83,3,3.64,3.64,0,0,1-2.28,3.8,7.53,7.53,0,0,1-1.74.22Z"/><path class="cls-8" d="M65.84,48.67c-11.45,0-22.89,0-34.34,0a3.73,3.73,0,0,1-3.77-3.22c-.25-1.62,1.44-3.57,3.19-3.71.21,0,.41,0,.62,0h68.77a3.44,3.44,0,0,1,3.28,1.83,3.37,3.37,0,0,1-3,5.08Z"/></g></g></svg>