<svg xmlns="http://www.w3.org/2000/svg" xmlns:xlink="http://www.w3.org/1999/xlink" viewBox="0 0 209.88 224.72"><defs><style>.cls-1{fill:url(#Новый_образец_градиентной_залив);}.cls-2{fill:url(#Новый_образец_градиентной_залив-2);}.cls-3{fill:url(#Новый_образец_градиентной_залив-3);}</style><linearGradient id="Новый_образец_градиентной_залив" x1="-2.25" y1="27.7" x2="186.74" y2="233.19" gradientUnits="userSpaceOnUse"><stop offset="0" stop-color="#12cfb0"/><stop offset="1" stop-color="#2c63df"/></linearGradient><linearGradient id="Новый_образец_градиентной_залив-2" x1="49.74" y1="-20.11" x2="238.73" y2="185.38" xlink:href="#Новый_образец_градиентной_залив"/><linearGradient id="Новый_образец_градиентной_залив-3" x1="49.79" y1="-20.15" x2="238.78" y2="185.34" xlink:href="#Новый_образец_градиентной_залив"/></defs><title>Ресурс 7</title><g id="Слой_2" data-name="Слой 2"><g id="Слой_1-2" data-name="Слой 1"><path class="cls-1" d="M86.28,224.72c-2.14-.92-4.79-1.34-6.29-2.88-2.76-2.81-4.84-6.28-7.54-9.94-1.76.9-4.48,2.14-7.06,3.64-8.67,5-18.79,0-20.42-10.72-8.07,1.66-14.53-.62-17.27-8.89-2.31-7,.1-11.28,8.39-17-1.9-2.79-3.81-5.58-5.69-8.38a4.21,4.21,0,0,1-.84-1.7c-.6-5.7-4.72-8-9.28-10.21-5-2.38-9.87-5.22-14.89-7.64A9.45,9.45,0,0,1,1.3,137.62C8.66,123.85,15.68,109.91,23,96.1c2.92-5.53,8.19-6.84,13.77-3.85,5.23,2.81,10.47,5.6,15.79,8.24a3.63,3.63,0,0,0,3.13,0c5-3.72,10.69-5.13,16.7-5.54a119.14,119.14,0,0,1,28.2,1.91,32.25,32.25,0,0,0,11.13-.28c10-1.88,20.07-2.7,30.1-.9,4,.72,7.94,2.63,11.62,4.53,1.7.88,2.79,1,4.35.17,4.86-2.6,9.76-5.12,14.66-7.65,7.07-3.65,11.83-2.14,15.43,4.88q10.39,20.24,20.76,40.49c2.63,5.12,1.14,10.11-4,12.81-7.22,3.79-14.47,7.53-21.69,11.29,1.24,2.47,2.72,4.62,3.42,7a12.2,12.2,0,0,1-3.39,13c-.91.88-2,2.62-1.74,3.51,4.27,12.4-3,21.14-15.15,19.23-2.4,3.52-4,7.31-6.86,9.78-5.48,4.8-11.44,2.86-17.11-.34-1.77-1-3.6-1.9-5.76-3a51.11,51.11,0,0,1-1.76,5.33c-2.16,4.72-6.45,6.64-11.06,8.07h-1.31c-5-2.35-9.93-4.83-15-6.95a6.9,6.9,0,0,0-4.75.11c-5.22,2.11-10.32,4.53-15.46,6.84Zm73.08-117.17a56.19,56.19,0,0,1,3,5.62c.76,1.91.67,3.74-1.5,5s-3.48.08-4.64-1.44c-.63-.83-.92-1.92-1.47-2.83-2-3.25-3.07-7.07-7-8.95-7.26-3.45-14.88-3.3-22.57-2.76-.17,0-.31.45-.56.85,2.22.61,4.29,1.16,6.35,1.75,7.42,2.1,9.25,5.33,7.24,12.74-.23.84-.49,1.66-.74,2.5-1.46,4.92-4.93,8.19-9.77,8.59-5.41.44-10.92-.54-16.39-.75a9.71,9.71,0,0,0-4.53.74C100,132,93.39,135.47,86.76,139q-22.29,11.75-44.54,23.57a6.19,6.19,0,0,0-2.71,8.33,6.27,6.27,0,0,0,8.2,2.4c5.54-2.79,11-5.7,16.49-8.58,11.33-6,22.61-12,34-17.88,1.91-1,4.26-.92,5.4,1.3,1,1.92.43,3.81-1.71,4.91l-4.32,2.25q-21.4,11.2-42.8,22.42c-6,3.16-12.07,6.23-17.94,9.64-3.14,1.83-3.52,5.11-1.5,8.06s5.43,3.3,9.87,1C65.09,185.95,85,175.6,104.87,165.14c2.28-1.2,4.15-1,5.29,1.07,1.23,2.26.2,4.25-2,5.41-9,4.67-18,9.26-26.94,13.93-8.68,4.52-17.38,9-25.94,13.73-3.91,2.16-3.73,7.4-.12,10,3.3,2.37,6,.42,8.68-1,16.65-8.68,33.24-17.5,49.93-26.1a5.78,5.78,0,0,1,4.78.26c.82.47,1.27,2.93.78,4-.6,1.27-2.27,2.18-3.65,2.9-10.37,5.43-20.79,10.75-31.16,16.15a5.77,5.77,0,0,0-2.72,8c1.8,3.44,5.06,4.49,8.46,2.73,1.54-.8,3.06-1.62,4.59-2.41,15.65-8.12,31.35-16.14,46.93-24.4,8.06-4.28,16.14-8.59,23.75-13.6,9.55-6.3,12.49-17,6.88-27.57-3.42-6.45-6.67-13-10-19.49-1.15-2.23-1.15-4.45,1.22-5.52s4,.11,5.15,2.49c4.67,9.45,9.53,18.8,14.37,28.31,4.85-2.5,10.2-5.3,15.57-8,4.63-2.35,4.77-3,2.25-7.65-3.12-5.78-6.08-11.64-9.12-17.46q-5.34-10.26-10.69-20.52c-.85-1.63-2-3.13-4-2.07C171.18,101.25,165.35,104.39,159.36,107.55ZM34.73,158.64c2.65-1.55,4.95-3,7.35-4.28,17.67-9.29,35.37-18.52,53-27.84a3,3,0,0,0,1.47-2.12c-.28-4.92.58-6,5.47-5.3q9.18,1.23,18.29,2.9c5.89,1.07,11-1.15,11.1-7.68,0-.81-.74-2.2-1.38-2.36-12.57-3.1-25.13-6.29-37.8-9a57.43,57.43,0,0,0-26.78.44c-3.25.86-6.21,2.51-7.88,5.72-2.82,5.42-5.66,10.82-8.45,16.25-3.29,6.38-6.53,12.79-9.83,19.17-1,2-2.56,3-4.79,2s-2.34-2.88-1.66-4.89a19.85,19.85,0,0,1,1.31-2.59C39.1,129.45,44,119.83,49,110.27c1.09-2.08.86-3.21-1.32-4.28-4.89-2.41-9.64-5.09-14.51-7.55-1.55-.79-3-.88-4,1.23-2,4.15-4.35,8.14-6.48,12.23C17.84,121.25,13,130.64,8.12,140c-1.23,2.34-1.14,3.89,1.52,5.2,5.9,2.89,11.67,6,17.56,9.1,1.4-2,1.78-5.35,5.19-4.32C37.09,151.34,34.53,155.25,34.73,158.64Zm98.76,43.13c6.17,3.13,11.37,5.92,16.72,8.37,1,.47,2.82-.05,4-.67,4.28-2.31,4.47-7.74.28-10.21-2.72-1.6-6-4.05-8.61-3.58C141.82,196.43,138.19,199.32,133.49,201.77Zm21-10.73c4.62,2.33,8.55,4.51,12.65,6.31,3.16,1.39,5.58.44,7.39-2.07s1.55-5.48-.48-7.07c-2.35-1.84-5.91-3.86-8.44-3.35C162,185.61,158.75,188.56,154.53,191Zm-41.73,21.5c3.2,1.67,5.6,3.38,8.28,4.21a6,6,0,0,0,7.48-7c-.38-1.71-1.16-4.4-3.6-3.45C121,207.84,117.35,210.14,112.79,212.54ZM179,172l-5.1,6.58C179,177.18,180.12,175.63,179,172Z"/><path class="cls-2" d="M65,39.72C65.18,18,83.42-.13,105,0c21.83.14,40.16,18.44,39.66,40.27-.51,22.25-17.94,39.46-40.23,39.27C82.43,79.35,65.6,62,65,39.72Zm39.81,32.56c18,0,32-14.12,32.53-32S122.46,7.57,105.6,7.27c-18.3-.32-33.47,15-33.21,32.63C72.66,58,86.74,72.24,104.84,72.28Z"/><path class="cls-3" d="M109.86,48.86c0-3.32-1.93-5.5-5.36-5.38-8.32.29-13-7.12-12.4-14.1a11,11,0,0,1,5.16-8.44c1.83-1.24,3-2.44,2.84-4.91s2.4-4.62,4.89-4.56,4.91,2.21,4.72,4.69c-.17,2.32.93,3.46,2.61,4.72a19.18,19.18,0,0,1,4.09,4.4c1.66,2.4,1.08,4.77-1.37,5.92s-4.09.3-5.31-2C108.24,26.27,105.37,25,103,26A4.88,4.88,0,0,0,100,31.8c.53,3,3,3.57,5.39,3.66,9.76.35,13.59,9.11,12.23,16a12,12,0,0,1-5.5,7.67c-1.38.93-2.58,1.89-2.4,4.05.24,2.9-1.86,4.85-4.66,4.93s-4.72-1.94-5.08-5a7.77,7.77,0,0,0-1.84-3.64c-1.45-1.8-3.38-3.24-4.69-5.12-1.69-2.42-1.07-4.71,1.37-5.91s4.15-.19,5.28,2.11c1.24,2.54,3.27,3.84,6.06,3.14C108.55,53,110,51.36,109.86,48.86Z"/></g></g></svg>