<svg xmlns="http://www.w3.org/2000/svg" xmlns:xlink="http://www.w3.org/1999/xlink" viewBox="0 0 280.14 120.13"><defs><style>.cls-1{fill:url(#Новый_образец_градиентной_залив);}.cls-2{fill:url(#Новый_образец_градиентной_залив-2);}.cls-3{fill:url(#Новый_образец_градиентной_залив-3);}.cls-4{fill:url(#Новый_образец_градиентной_залив-4);}</style><linearGradient id="Новый_образец_градиентной_залив" x1="41.88" y1="0.23" x2="278.87" y2="93.22" gradientUnits="userSpaceOnUse"><stop offset="0" stop-color="#12cfb0"/><stop offset="1" stop-color="#2c63df"/></linearGradient><linearGradient id="Новый_образец_градиентной_залив-2" x1="22.32" y1="50.08" x2="259.31" y2="143.07" xlink:href="#Новый_образец_градиентной_залив"/><linearGradient id="Новый_образец_градиентной_залив-3" x1="14.13" y1="70.94" x2="251.12" y2="163.93" xlink:href="#Новый_образец_градиентной_залив"/><linearGradient id="Новый_образец_градиентной_залив-4" x1="34.93" y1="17.95" x2="271.91" y2="110.95" xlink:href="#Новый_образец_градиентной_залив"/></defs><title>Ресурс 6</title><g id="Слой_2" data-name="Слой 2"><g id="Слой_1-2" data-name="Слой 1"><path class="cls-1" d="M194.2,120.07c-24.35,0-48.7-.09-73,.06a13,13,0,0,1-13-13.16c.11-31.18.07-62.36,0-93.54,0-8.24,5.73-13.54,13.43-13.43,3.46,0,107.3,0,145.6,0,5.07,0,9.22,2.05,11.62,6.55A14.27,14.27,0,0,1,280,13.07c.07,31.11,0,62.21.11,93.32,0,4.23-1.09,7.75-4.19,10.59a11.09,11.09,0,0,1-7.61,3C243.63,120,194.2,120.05,194.2,120.07Zm0-111.28q-36.52,0-73,0c-1.71,0-3.33.22-3.95,2a4.16,4.16,0,0,0,1.12,4.75c5.27,5,10.4,10.21,15.64,15.28Q153.15,49.4,172.4,68c6.13,5.95,12.18,12,18.28,18,2.59,2.54,4.4,2.48,7-.08q8.51-8.3,17.06-16.56,14.38-14,28.75-27.94,11.65-11.31,23.31-22.6c1.13-1.1,2.06-2.42,3.28-3.42,1.73-1.42,1.64-3.09,1-4.86s-2.13-1.71-3.64-1.71Zm-.12,102.49q36.84,0,73.67-.06a4.45,4.45,0,0,0,3.22-1.51c.88-1.26.29-2.62-1-3.8-4.44-4.19-8.77-8.5-13.14-12.77C248.43,84.9,240,76.68,231.64,68.39c-1.45-1.44-2.4-1.5-3.91,0-8.15,8.1-16.4,16.11-24.62,24.13-5.09,5-12.21,5.46-17.54.17-2.25-2.23-4.49-4.47-6.76-6.67-6-5.79-12-11.56-17.91-17.36-2.09-2-2-2.07-4.21,0-.72.7-1.54,1.32-2.26,2Q141.2,83.6,128,96.51c-3.36,3.28-6.76,6.5-10.06,9.84-1.55,1.56-1.24,3.61.62,4.48a6.59,6.59,0,0,0,2.72.43Q157.65,111.29,194.05,111.28Zm-77-16.1c1.6-1.48,2.82-2.57,4-3.71C131,81.75,141,72,151,62.34c1.31-1.27,1.39-2,0-3.29-5.53-5.17-11-10.44-16.4-15.71-3.95-3.84-7.82-7.75-11.75-11.6-1.8-1.77-3.65-3.48-5.81-5.54ZM271.39,27.27l-.58-.31a16.81,16.81,0,0,0-1.61,1.23q-5.38,5.19-10.72,10.42c-7,6.84-14,13.7-21.05,20.5-1.19,1.15-1.33,2-.07,3.21Q253.3,77.7,269.18,93.14a13.28,13.28,0,0,0,2.21,1.39Z"/><path class="cls-2" d="M50.81,65.58q-23,0-46,0c-3.5,0-5.38-2.24-4.65-5.43a3.84,3.84,0,0,1,3.5-3A13.7,13.7,0,0,1,5.83,57H95.89c1.89,0,4-.21,4.88,1.93.51,1.17,1.07,2.76.66,3.77a4.21,4.21,0,0,1-4,2.86c-8.94,0-17.88,0-26.82,0Z"/><path class="cls-3" d="M58.23,83.77H96.4c3.15,0,5.35,1.84,5.32,4.43s-2.28,4.34-5.25,4.34H19.26c-2.64,0-5.3-2.23-5.31-4.4,0-2.44,2.26-4.36,5.24-4.37Q38.72,83.76,58.23,83.77Z"/><path class="cls-4" d="M75.87,38.47c-6.82,0-13.64,0-20.46,0-3.82,0-6-3.29-4.19-6.42,1-1.83,3-2.3,4.85-2.31q20.24-.1,40.49,0a4.82,4.82,0,0,1,4.89,3.23,4.82,4.82,0,0,1-.9,3.93,5.6,5.6,0,0,1-3.78,1.54C89.81,38.55,82.84,38.47,75.87,38.47Z"/></g></g></svg>